# xmcd
#
# Track frame offsets:
#	150
#	15850
#	34147
#	56635
#	77980
#	109417
#	140105
#	155192
#	169235
#	186575
#
# Disc length: 2720 seconds
#
# Revision: 1
# Processed by: cddbd v1.4PL0 Copyright (c) Steve Scherf et al.
# Submitted via: audiograbber 1.80.04
#
DISCID=900a9e0a
DTITLE=Barry White - His Very Best
DYEAR=1900
DGENRE=
TTITLE0=Let The Music Play
TTITLE1=Can't Get Enough Of Your Love, Babe
TTITLE2=I Love You More Than Anything (In This World, Girl)
TTITLE3=Love Serenade (Part l)
TTITLE4=Hard To Believe That I Found You
TTITLE5=September When I First Met You
TTITLE6=Don't Make Me Wait To Long
TTITLE7=Love Serenade (Part 2)
TTITLE8=Oh Love, Well We Finally Made It
TTITLE9=L'M Gonna Love You Just A Little Bit More Baby
EXTD=
EXTT0=
EXTT1=
EXTT2=
EXTT3=
EXTT4=
EXTT5=
EXTT6=
EXTT7=
EXTT8=
EXTT9=
PLAYORDER=
